<?xml version="1.0" encoding="utf-8"?>
<!-- Generator: Adobe Illustrator 17.0.0, SVG Export Plug-In . SVG Version: 6.00 Build 0)  -->
<!DOCTYPE svg PUBLIC "-//W3C//DTD SVG 1.1//EN" "http://www.w3.org/Graphics/SVG/1.1/DTD/svg11.dtd">
<svg version="1.1" id="Layer_1" focusable="false" xmlns="http://www.w3.org/2000/svg" xmlns:xlink="http://www.w3.org/1999/xlink"
	 x="0px" y="0px" width="595.28px" height="841.89px" viewBox="0 0 595.28 841.89" enable-background="new 0 0 595.28 841.89"
	 xml:space="preserve">
<path fill="#FFFFFF" d="M347.247,234.92V24.092H37.205C16.587,24.092,0,40.679,0,61.297v719.297
	c0,20.618,16.587,37.205,37.205,37.205h520.87c20.618,0,37.205-16.587,37.205-37.205V272.125H384.452
	C363.989,272.125,347.247,255.383,347.247,234.92z M198.427,458.15c0,6.852-5.55,12.402-12.402,12.402h-12.402
	c-13.704,0-24.803,11.1-24.803,24.803v49.607c0,13.704,11.1,24.803,24.803,24.803h12.402c6.852,0,12.402,5.55,12.402,12.402v24.803
	c0,6.852-5.55,12.402-12.402,12.402h-12.402c-41.096,0-74.41-33.314-74.41-74.41v-49.607c0-41.096,33.314-74.41,74.41-74.41h12.402
	c6.852,0,12.402,5.55,12.402,12.402V458.15z M267.054,619.372h-19.021c-6.852,0-12.402-5.55-12.402-12.402v-24.803
	c0-6.852,5.55-12.402,12.402-12.402h19.021c9.224,0,16.138-5.426,16.138-10.262c0-2.015-1.163-4.124-3.286-5.953l-33.934-29.097
	c-13.13-11.193-20.664-27.098-20.664-43.623c0-33.019,29.485-59.869,65.744-59.869h18.99c6.852,0,12.402,5.55,12.402,12.402v24.803
	c0,6.852-5.55,12.402-12.402,12.402h-19.021c-9.224,0-16.138,5.426-16.138,10.262c0,2.015,1.163,4.124,3.286,5.953l33.934,29.097
	c13.13,11.193,20.664,27.098,20.664,43.623C332.783,592.507,303.314,619.372,267.054,619.372L267.054,619.372z M396.853,433.347
	v32.244c0,31.423,8.836,62.272,24.803,88.176c15.967-25.888,24.803-56.753,24.803-88.176v-32.244c0-6.852,5.55-12.402,12.402-12.402
	h24.803c6.852,0,12.402,5.55,12.402,12.402v32.244c0,55.001-19.967,106.794-56.242,145.859c-4.682,5.038-11.27,7.922-18.168,7.922
	c-6.898,0-13.487-2.883-18.168-7.922c-36.275-39.065-56.242-90.858-56.242-145.859v-32.244c0-6.852,5.55-12.402,12.402-12.402
	h24.803C391.304,420.945,396.853,426.495,396.853,433.347z M584.429,186.864L432.663,34.943
	c-6.976-6.976-16.432-10.851-26.354-10.851h-9.456v198.427H595.28v-9.456C595.28,203.296,591.405,193.839,584.429,186.864z"/>
</svg>
