<?xml version="1.0" encoding="utf-8"?>
<!-- Generator: Adobe Illustrator 17.0.0, SVG Export Plug-In . SVG Version: 6.00 Build 0)  -->
<!DOCTYPE svg PUBLIC "-//W3C//DTD SVG 1.1//EN" "http://www.w3.org/Graphics/SVG/1.1/DTD/svg11.dtd">
<svg version="1.1" id="Layer_1" focusable="false" xmlns="http://www.w3.org/2000/svg" xmlns:xlink="http://www.w3.org/1999/xlink"
	 x="0px" y="0px" width="595.28px" height="841.89px" viewBox="0 0 595.28 841.89" enable-background="new 0 0 595.28 841.89"
	 xml:space="preserve">
<path fill="#FFFFFF" d="M281.983,421.1c-7.751-24.803-7.596-72.705-3.1-72.705C291.904,348.395,290.664,405.598,281.983,421.1z
	 M279.348,494.27c-11.937,31.314-26.819,67.124-44.026,97.198c28.369-10.851,60.458-26.664,97.508-33.95
	C313.142,542.636,294.23,521.244,279.348,494.27L279.348,494.27z M133.473,687.736c0,1.24,20.463-8.371,54.102-62.318
	C177.189,635.184,142.464,663.398,133.473,687.736z M384.452,272.125H595.28v508.468c0,20.618-16.587,37.205-37.205,37.205H37.205
	C16.587,817.798,0,801.211,0,780.593V61.297c0-20.618,16.587-37.205,37.205-37.205h310.042V234.92
	C347.247,255.383,363.989,272.125,384.452,272.125z M372.05,538.451c-31.004-18.913-51.622-44.956-66.194-83.401
	c6.976-28.679,17.982-72.24,9.611-99.523c-7.286-45.576-65.729-41.081-74.1-10.541c-7.751,28.369-0.62,68.364,12.557,119.366
	c-17.982,42.786-44.491,100.143-63.249,133.008c-0.155,0-0.155,0.155-0.31,0.155c-42.011,21.548-114.095,68.984-84.486,105.414
	c8.681,10.696,24.803,15.502,33.329,15.502c27.749,0,55.342-27.904,94.718-95.803c39.995-13.177,83.866-29.609,122.466-35.965
	c33.64,18.292,73.015,30.229,99.213,30.229c45.266,0,48.367-49.607,30.539-67.279C464.598,528.529,401.969,534.575,372.05,538.451z
	 M584.429,186.864l-151.92-151.92c-6.976-6.976-16.432-10.851-26.354-10.851h-9.301v198.427H595.28v-9.456
	C595.28,203.296,591.405,193.839,584.429,186.864z M469.558,582.632c6.356-4.186-3.876-18.447-66.349-13.952
	C460.722,593.173,469.558,582.632,469.558,582.632z"/>
</svg>
